<?xml version="1.0" encoding="utf-8"?>
<!-- Generator: Adobe Illustrator 15.0.0, SVG Export Plug-In . SVG Version: 6.00 Build 0)  -->
<!DOCTYPE svg PUBLIC "-//W3C//DTD SVG 1.1//EN" "http://www.w3.org/Graphics/SVG/1.1/DTD/svg11.dtd">
<svg version="1.1" id="Layer_1" xmlns="http://www.w3.org/2000/svg" xmlns:xlink="http://www.w3.org/1999/xlink" x="0px" y="0px"
	 width="64px" height="64px" viewBox="0 0 64 64" enable-background="new 0 0 64 64" xml:space="preserve">
<title>warning</title>
<path d="M31,48c1.656,0,3-1.344,3-3s-1.344-3-3-3c-1.657,0-3,1.344-3,3S29.343,48,31,48z M31,44c0.552,0,1,0.447,1,1s-0.448,1-1,1
	s-1-0.447-1-1S30.448,44,31,44z"/>
<path d="M31,40c1.656,0,3-1.344,3-3V21c0-1.657-1.344-3-3-3c-1.657,0-3,1.343-3,3v16C28,38.656,29.343,40,31,40z M30,21
	c0-0.552,0.448-1,1-1s1,0.448,1,1v16c0,0.553-0.448,1-1,1s-1-0.447-1-1V21z"/>
<path d="M9,56h44c3.866,0,7-3.134,7-7c-0.049-1.072-0.297-2.127-0.73-3.109c-0.022-0.049-0.049-0.096-0.08-0.141L36.75,11
	l-0.061-0.1c-2.252-3.143-6.624-3.864-9.767-1.613c-0.622,0.446-1.167,0.991-1.613,1.613L25.25,11L2.8,45.76c0,0,0,0.09-0.08,0.141
	C2.295,46.881,2.051,47.932,2,49C2,52.866,5.134,56,9,56z M4.53,46.77L27,12l0,0c1.657-2.209,4.791-2.657,7-1
	c0.379,0.284,0.716,0.621,1,1l0,0l22.471,34.77C57.771,47.479,57.95,48.232,58,49c0,2.762-2.238,5-5,5H9c-2.761,0-5-2.238-5-5
	C4.05,48.232,4.229,47.479,4.53,46.77z"/>
</svg>
