<?xml version="1.0" encoding="utf-8"?>
<!-- Generator: Adobe Illustrator 15.0.0, SVG Export Plug-In . SVG Version: 6.00 Build 0)  -->
<!DOCTYPE svg PUBLIC "-//W3C//DTD SVG 1.1//EN" "http://www.w3.org/Graphics/SVG/1.1/DTD/svg11.dtd">
<svg version="1.1" id="Layer_1" xmlns="http://www.w3.org/2000/svg" xmlns:xlink="http://www.w3.org/1999/xlink" x="0px" y="0px"
	 width="24px" height="24px" viewBox="0 0 24 24" enable-background="new 0 0 24 24" xml:space="preserve">
<title>wqewqeqwewqeqeqwe</title>
<path d="M6.21,20.18c0.16,0.18-2.47-0.91-2.29-0.74c0,0,3.82-1.31,5.21-1.869l0.19-0.141c-1.611,0.33-3.285-0.081-4.56-1.119
	c0,0,2-0.811,1.6-5.78C5.96,5.56,8.58,4.43,10,4.31c0.635-0.099,1.278,0.113,1.73,0.57c0.452-0.457,1.095-0.669,1.73-0.57
	c1.399,0.11,4,1.27,3.61,6.22c-0.391,4.95,1.6,5.78,1.6,5.78c-1.348,1.098-3.137,1.49-4.82,1.06c0.072,0.079,0.156,0.147,0.25,0.2
	c1.396,0.566,2.824,1.045,4.28,1.43l1.72,0.47L19,20l-0.79,0.23 M11.68,23.32L11.68,23.32"/>
<path d="M12,0C5.373,0,0,5.373,0,12c0,3.16,1.247,6.193,3.47,8.439l0,0c4.661,4.712,12.258,4.752,16.97,0.091
	c4.711-4.661,4.751-12.259,0.091-16.97C18.276,1.282,15.205,0,12,0z M3.92,19.439C-0.202,14.978,0.073,8.018,4.536,3.896
	C8.999-0.227,15.957,0.049,20.08,4.512C21.963,6.55,23.006,9.225,23,12c0.005,2.754-1.031,5.408-2.9,7.43"/>
</svg>
